<svg xmlns="http://www.w3.org/2000/svg" viewBox="0 0 32 32" width="32" height="32">
  <defs>
    <linearGradient id="bg" x1="0%" y1="0%" x2="100%" y2="100%">
      <stop offset="0%" style="stop-color:#1a1a2e;stop-opacity:1" />
      <stop offset="100%" style="stop-color:#0f3460;stop-opacity:1" />
    </linearGradient>
    <linearGradient id="robotGrad" x1="0%" y1="0%" x2="100%" y2="100%">
      <stop offset="0%" style="stop-color:#b0b0b0;stop-opacity:1" />
      <stop offset="100%" style="stop-color:#808080;stop-opacity:1" />
    </linearGradient>
  </defs>
  
  <!-- Background circle -->
  <circle cx="16" cy="16" r="15" fill="#ffffff" stroke="#ddd" stroke-width="1"/>
  
  <!-- Robot body (main torso) -->
  <rect x="12" y="12" width="8" height="10" fill="url(#robotGrad)" rx="2" stroke="#999" stroke-width="0.5"/>
  
  <!-- Robot head -->
  <rect x="13" y="8" width="6" height="5" fill="url(#robotGrad)" rx="1" stroke="#999" stroke-width="0.5"/>
  
  <!-- Robot eyes -->
  <circle cx="14.5" cy="10" r="0.8" fill="#4CAF50"/>
  <circle cx="17.5" cy="10" r="0.8" fill="#4CAF50"/>
  
  <!-- Camera mounted on robot -->
  <rect x="19" y="9" width="5" height="4" fill="#333" rx="1"/>
  <rect x="20" y="10" width="3" height="2" fill="#4CAF50" rx="0.5"/>
  <circle cx="21.5" cy="11" r="0.8" fill="#fff"/>
  <circle cx="21.5" cy="11" r="0.4" fill="#000"/>
  
  <!-- Camera lens glint -->
  <circle cx="21.2" cy="10.7" r="0.2" fill="#fff" opacity="0.8"/>
  
  <!-- Robot arms -->
  <rect x="9" y="14" width="3" height="6" fill="url(#robotGrad)" rx="1" stroke="#999" stroke-width="0.5"/>
  <rect x="20" y="14" width="3" height="6" fill="url(#robotGrad)" rx="1" stroke="#999" stroke-width="0.5"/>
  
  <!-- Robot hands/grippers -->
  <circle cx="10.5" cy="20.5" r="1" fill="#444"/>
  <circle cx="21.5" cy="20.5" r="1" fill="#444"/>
  
  <!-- Depth sensor waves -->
  <path d="M24 10 Q27 8 28 11 Q27 14 24 12" stroke="#4CAF50" stroke-width="1" fill="none" opacity="0.7"/>
  <path d="M25 10.5 Q26.5 9.5 27 11 Q26.5 12.5 25 11.5" stroke="#4CAF50" stroke-width="0.8" fill="none" opacity="0.5"/>
  
  <!-- Robot chest panel -->
  <rect x="14" y="15" width="4" height="2" fill="#4CAF50" rx="0.5" opacity="0.8"/>
  
  <!-- Small status LEDs -->
  <circle cx="14.5" cy="16" r="0.3" fill="#00ff00"/>
  <circle cx="17.5" cy="16" r="0.3" fill="#00ff00"/>
</svg>